# xmcd
#
# Track frame offsets: 
#        150
#        17567
#        39701
#        51911
#        71550
#        87127
#        104859
#        123106
#        140713
#        158739
#        179167
#        197177
#        213692
#        232715
#        249353
#        268433
#        291466
#        311361
#
# Disc length: 4448 seconds
#
# Revision: 0
# Processed by: cddbd v1.5.2PL0 Copyright (c) Steve Scherf et al.
# Submitted via: ExactAudioCopyFreeDBPlugin 1.0
#
DISCID=16115e12
DTITLE=美空ひばり - 美空ひばりベスト 1964~1989 (紅盤)
DYEAR=2011
DGENRE=JPop
TTITLE0=柔
TTITLE1=悲しい酒
TTITLE2=真赤な太陽
TTITLE3=芸道一代
TTITLE4=むらさきの夜明け
TTITLE5=人生一路
TTITLE6=ある女の詩
TTITLE7=一本の鉛筆
TTITLE8=ひとりぼっち
TTITLE9=風の流れに
TTITLE10=雑草の歌
TTITLE11=歌は我が命
TTITLE12=さくらの唄
TTITLE13=おまえに惚れた
TTITLE14=裏町酒場
TTITLE15=愛燦燦
TTITLE16=みだれ髪
TTITLE17=川の流れのように
EXTD=
EXTT0=
EXTT1=
EXTT2=
EXTT3=
EXTT4=
EXTT5=
EXTT6=
EXTT7=
EXTT8=
EXTT9=
EXTT10=
EXTT11=
EXTT12=
EXTT13=
EXTT14=
EXTT15=
EXTT16=
EXTT17=
PLAYORDER=
